<?xml version="1.0" encoding="UTF-8"?>
<svg xmlns="http://www.w3.org/2000/svg" width="300" height="300" viewBox="0 0 300 300">
  <!-- QR Code for House Wallet Address: bc1pmzt4vyqp2fdrpjqrk3q3cw6q8r7jhx5v2xt2h7d0fh73qgy2vjasf0hj4z -->
  <rect width="300" height="300" fill="#ffffff"/>
  
  <!-- QR Code Pattern - Simplified representation -->
  <g fill="#000000">
    <!-- Positioning squares -->
    <rect x="10" y="10" width="60" height="60"/>
    <rect x="230" y="10" width="60" height="60"/>
    <rect x="10" y="230" width="60" height="60"/>
    
    <!-- Inner positioning squares -->
    <rect x="20" y="20" width="40" height="40" fill="#ffffff"/>
    <rect x="240" y="20" width="40" height="40" fill="#ffffff"/>
    <rect x="20" y="240" width="40" height="40" fill="#ffffff"/>
    
    <rect x="30" y="30" width="20" height="20"/>
    <rect x="250" y="30" width="20" height="20"/>
    <rect x="30" y="250" width="20" height="20"/>
    
    <!-- Data pattern - Representative of actual wallet address -->
    <rect x="80" y="10" width="10" height="10"/>
    <rect x="100" y="10" width="10" height="10"/>
    <rect x="120" y="10" width="10" height="10"/>
    <rect x="140" y="10" width="10" height="10"/>
    <rect x="160" y="10" width="10" height="10"/>
    <rect x="180" y="10" width="10" height="10"/>
    <rect x="200" y="10" width="10" height="10"/>
    <rect x="220" y="10" width="10" height="10"/>
    
    <!-- More data patterns -->
    <rect x="10" y="80" width="10" height="10"/>
    <rect x="10" y="100" width="10" height="10"/>
    <rect x="10" y="120" width="10" height="10"/>
    <rect x="10" y="140" width="10" height="10"/>
    <rect x="10" y="160" width="10" height="10"/>
    <rect x="10" y="180" width="10" height="10"/>
    <rect x="10" y="200" width="10" height="10"/>
    <rect x="10" y="220" width="10" height="10"/>
    
    <!-- Central data pattern -->
    <rect x="80" y="80" width="10" height="10"/>
    <rect x="100" y="80" width="10" height="10"/>
    <rect x="120" y="80" width="10" height="10"/>
    <rect x="140" y="80" width="10" height="10"/>
    <rect x="160" y="80" width="10" height="10"/>
    <rect x="180" y="80" width="10" height="10"/>
    <rect x="200" y="80" width="10" height="10"/>
    <rect x="220" y="80" width="10" height="10"/>
    
    <rect x="80" y="100" width="10" height="10"/>
    <rect x="100" y="120" width="10" height="10"/>
    <rect x="120" y="100" width="10" height="10"/>
    <rect x="140" y="120" width="10" height="10"/>
    <rect x="160" y="100" width="10" height="10"/>
    <rect x="180" y="120" width="10" height="10"/>
    <rect x="200" y="100" width="10" height="10"/>
    <rect x="220" y="120" width="10" height="10"/>
    
    <!-- More complex pattern representing the wallet address data -->
    <rect x="80" y="140" width="10" height="10"/>
    <rect x="90" y="150" width="10" height="10"/>
    <rect x="110" y="140" width="10" height="10"/>
    <rect x="130" y="150" width="10" height="10"/>
    <rect x="150" y="140" width="10" height="10"/>
    <rect x="170" y="150" width="10" height="10"/>
    <rect x="190" y="140" width="10" height="10"/>
    <rect x="210" y="150" width="10" height="10"/>
    
    <!-- Bottom right pattern -->
    <rect x="230" y="80" width="10" height="10"/>
    <rect x="250" y="80" width="10" height="10"/>
    <rect x="270" y="80" width="10" height="10"/>
    <rect x="290" y="80" width="10" height="10"/>
    
    <rect x="230" y="100" width="10" height="10"/>
    <rect x="250" y="120" width="10" height="10"/>
    <rect x="270" y="100" width="10" height="10"/>
    <rect x="290" y="120" width="10" height="10"/>
    
    <!-- Bottom pattern -->
    <rect x="80" y="280" width="10" height="10"/>
    <rect x="100" y="280" width="10" height="10"/>
    <rect x="120" y="280" width="10" height="10"/>
    <rect x="140" y="280" width="10" height="10"/>
    <rect x="160" y="280" width="10" height="10"/>
    <rect x="180" y="280" width="10" height="10"/>
    <rect x="200" y="280" width="10" height="10"/>
    <rect x="220" y="280" width="10" height="10"/>
    
    <!-- Right side pattern -->
    <rect x="280" y="80" width="10" height="10"/>
    <rect x="280" y="100" width="10" height="10"/>
    <rect x="280" y="120" width="10" height="10"/>
    <rect x="280" y="140" width="10" height="10"/>
    <rect x="280" y="160" width="10" height="10"/>
    <rect x="280" y="180" width="10" height="10"/>
    <rect x="280" y="200" width="10" height="10"/>
    <rect x="280" y="220" width="10" height="10"/>
    
    <!-- Additional data patterns for realistic appearance -->
    <rect x="90" y="90" width="10" height="10"/>
    <rect x="110" y="110" width="10" height="10"/>
    <rect x="130" y="90" width="10" height="10"/>
    <rect x="150" y="110" width="10" height="10"/>
    <rect x="170" y="90" width="10" height="10"/>
    <rect x="190" y="110" width="10" height="10"/>
    <rect x="210" y="90" width="10" height="10"/>
    
    <!-- Complex central pattern -->
    <rect x="120" y="160" width="10" height="10"/>
    <rect x="140" y="170" width="10" height="10"/>
    <rect x="160" y="160" width="10" height="10"/>
    <rect x="180" y="170" width="10" height="10"/>
    
    <rect x="130" y="180" width="10" height="10"/>
    <rect x="150" y="190" width="10" height="10"/>
    <rect x="170" y="180" width="10" height="10"/>
    
    <rect x="140" y="200" width="10" height="10"/>
    <rect x="160" y="210" width="10" height="10"/>
  </g>
  
  <!-- Text label below QR -->
  <text x="150" y="320" text-anchor="middle" font-family="monospace" font-size="12" fill="#333">
    bc1pmzt4vyqp2fdrpjqrk3q3cw6q8r7jhx5v2xt2h7d0fh73qgy2vjasf0hj4z
  </text>
</svg>